<svg width="79" height="64"  xmlns="http://www.w3.org/2000/svg"
     xmlns:xlink="http://www.w3.org/1999/xlink" >
 <title>Produce by Acme CAD Converter</title>

 <desc>Produce by Acme CAD Converter</desc>
 <g>
  <title>background</title>
  <rect fill="none" id="canvas_background" height="66" width="81" y="-1" x="-1"/>
 </g>
 <g>
  <title>Layer 1</title>
  <g stroke="null" id="svg_8076">
   <g id="svg_8077">
    <polyline stroke="black" id="svg_216" fill="none" stroke-width="0.5" points="60.13172483444214,13.765141010284424 60.13172483444214,52.63512659072876 "/>
    <polyline stroke="black" id="svg_217" fill="none" stroke-width="0.5" points="19.321723461151123,13.765141010284424 60.13172483444214,13.765141010284424 "/>
    <polyline stroke="black" id="svg_218" fill="none" stroke-width="0.5" points="19.321723461151123,52.63512659072876 19.321723461151123,13.765141010284424 "/>
    <polyline stroke="black" id="svg_219" fill="none" stroke-width="0.5" points="60.13172483444214,52.63512659072876 19.321723461151123,52.63512659072876 "/>
    <polyline stroke="black" id="svg_220" fill="none" stroke-width="0.5" points="60.13172483444214,52.63512659072876 60.13172483444214,13.765141010284424 "/>
    <polyline stroke="black" id="svg_221" fill="none" stroke-width="0.5" points="19.321723461151123,52.63512659072876 60.13172483444214,52.63512659072876 "/>
    <polyline stroke="black" id="svg_222" fill="none" stroke-width="0.5" points="19.321723461151123,13.765141010284424 19.321723461151123,52.63512659072876 "/>
    <polyline stroke="black" id="svg_223" fill="none" stroke-width="0.5" points="60.13172483444214,13.765141010284424 19.321723461151123,13.765141010284424 19.321723461151123,13.765141010284424 "/>
    <polyline stroke="black" id="svg_224" fill="none" stroke-width="0.5" points="60.13172483444214,13.765141010284424 60.13172483444214,13.765141010284424 "/>
    <polyline stroke="black" id="svg_225" fill="none" stroke-width="0.5" points="19.321723461151123,52.63512659072876 19.321723461151123,52.63512659072876 "/>
    <polyline stroke="black" id="svg_226" fill="none" stroke-width="0.5" points="60.13172483444214,52.63512659072876 60.13172483444214,52.63512659072876 "/>
    <polyline stroke="black" id="svg_227" fill="none" stroke-width="0.5" points="27.251716136932373,29.325140476226807 27.251716136932373,38.185152530670166 "/>
    <polyline stroke="black" id="svg_228" fill="none" stroke-width="0.5" points="33.16171979904175,29.325140476226807 33.16171979904175,38.185152530670166 "/>
    <polyline stroke="black" id="svg_229" fill="none" stroke-width="0.5" points="27.251716136932373,33.545137882232666 33.16171979904175,33.545137882232666 "/>
    <polyline stroke="black" id="svg_230" fill="none" stroke-width="0.5" points="36.53172254562378,29.325140476226807 36.53172254562378,38.185152530670166 "/>
    <polyline stroke="black" id="svg_231" fill="none" stroke-width="0.5" points="36.53172254562378,29.325140476226807 40.33171796798706,29.325140476226807 41.591712474823,29.745150089263916 42.01172590255737,30.165132999420166 42.44171857833862,31.00512933731079 42.44171857833862,32.27514886856079 42.01172590255737,33.115145206451416 41.591712474823,33.545137882232666 40.33171796798706,33.96515130996704 36.53172254562378,33.96515130996704 "/>
    <polyline stroke="black" id="svg_232" fill="none" stroke-width="0.5" points="45.39171552658081,29.325140476226807 45.39171552658081,35.64514398574829 45.81171369552612,36.915132999420166 46.66171979904175,37.75512933731079 47.921714305877686,38.185152530670166 48.76172590255737,38.185152530670166 50.03171491622925,37.75512933731079 50.871726512908936,36.915132999420166 51.301719188690186,35.64514398574829 51.301719188690186,29.325140476226807 "/>
    <polyline stroke="black" id="svg_764" fill="none" stroke-width="0.5" points="60.13172483444214,24.395145893096924 62.451716899871826,24.395145893096924 "/>
    <polyline stroke="black" id="svg_765" fill="none" stroke-width="0.5" points="60.13172483444214,42.00512933731079 62.451716899871826,42.00512933731079 "/>
   </g>
  </g>
 </g>
</svg>