<svg width="17" height="16" xmlns="http://www.w3.org/2000/svg">
 <title>Produce by Acme CAD Converter</title>

 <desc>Produce by Acme CAD Converter</desc>
 <g>
  <title>background</title>
  <rect fill="none" id="canvas_background" height="18" width="19" y="-1" x="-1"/>
 </g>
 <g>
  <title>Layer 1</title>
  <g stroke="null" id="svg_8069">
   <polyline stroke="black" id="svg_8834" fill="none" stroke-width="0.5" points="4.451837569475174,7.949438095092773 4.631830245256424,6.739446640014648 5.161829024553299,5.639440536499023 6.001825362443924,4.739446640014648 7.051843672990799,4.129461288452148 8.241846114397049,3.8594417572021484 9.461847335100174,3.9494380950927734 10.601831465959549,4.399450302124023 11.551843672990799,5.159460067749023 12.241846114397049,6.169439315795898 12.601831465959549,7.339452743530273 12.601831465959549,8.559453964233398 12.241846114397049,9.719457626342773 11.551843672990799,10.729467391967773 10.601831465959549,11.489446640014648 9.461847335100174,11.939458847045898 8.241846114397049,12.029455184936523 7.051843672990799,11.759466171264648 6.001825362443924,11.149450302124023 5.161829024553299,10.249456405639648 4.631830245256424,9.149450302124023 4.451837569475174,7.949438095092773 "/>
   <polyline stroke="black" id="svg_8835" fill="none" stroke-width="0.5" points="7.791833907365799,6.929449081420898 7.791833907365799,8.559453964233398 "/>
   <polyline stroke="black" id="svg_8836" fill="none" stroke-width="0.5" points="7.791833907365799,6.929449081420898 8.491846114397049,6.929449081420898 8.721826583147049,7.009466171264648 8.801843672990799,7.089452743530273 8.881830245256424,7.249456405639648 8.881830245256424,7.479467391967773 8.801843672990799,7.629461288452148 8.721826583147049,7.709447860717773 8.491846114397049,7.789464950561523 7.791833907365799,7.789464950561523 "/>
   <polyline stroke="black" id="svg_8837" fill="none" stroke-width="0.5" points="9.421838790178299,6.929449081420898 9.421838790178299,8.559453964233398 "/>
  </g>
 </g>
</svg>